<?xml version="1.0" encoding="UTF-8"?>
<svg version="1.1" xmlns="http://www.w3.org/2000/svg" width="327" height="438">
  <path d="M0 0 C107.91 0 215.82 0 327 0 C327 144.54 327 289.08 327 438 C219.09 438 111.18 438 0 438 C0 293.46 0 148.92 0 0 Z " fill="none" transform="translate(0,0)"/>
  <path d="M0 0 C3.14217784 4.71326675 2.90534296 7.3690915 2.5 12.875 C2.11923544 23.1568442 6.5498958 31.5738701 10.92138672 40.64160156 C11.94239798 42.87405262 12.78433977 45.10452649 13.58984375 47.421875 C14.88873029 50.71766467 15.59149556 52.08841227 18.25 54.25 C22.32340346 57.9889556 24.63489103 62.3431127 27.31640625 67.1328125 C30.80140636 73.06782429 35.25280662 77.44431439 40.58203125 81.73828125 C42 83 42 83 43 85 C43.13117337 87.33197099 43.23014398 89.66579508 43.3125 92 C43.58986681 97.83513044 44.72530746 102.42732009 47.1328125 107.734375 C49.47138657 113.84416311 48.1898894 118.75460815 45.65234375 124.56640625 C44.74562975 127.94893813 44.95603745 131.06984149 45.0625 134.5625 C45.18758721 140.86064111 44.94745078 144.09235849 41 149 C39.35511706 150.68816933 37.68662458 152.35353315 36 154 C30.74771331 159.88525457 28.30752408 165.90487966 26 173.375 C22.82474156 183.57349956 18.82601688 192.17257508 11.625 200.1875 C9.1265489 203.25443233 8.07329878 204.62017902 7.3125 208.5625 C8.43226845 214.16134226 9.8157726 219.2236589 13 224 C13.25760279 226.69452521 13.08900053 229.28548375 13 232 C10.48020514 233.25989743 9.04344672 233.0039497 6.25 232.75 C5.40953125 232.68296875 4.5690625 232.6159375 3.703125 232.546875 C0.43854434 231.8864107 -2.04990106 230.53510238 -5 229 C-7.11763927 228.20916945 -9.24295251 227.43862085 -11.375 226.6875 C-21.81835289 222.67173973 -26.82565858 217.91748773 -32 208 C-35.93598016 208.40999793 -39.17537818 208.99209302 -42.8125 210.5625 C-47.50690496 212.4623967 -52.00865002 212.27616076 -57 212 C-53.7412426 209.82749507 -52.00968944 209.59616298 -48.1875 209.125 C-43.21192743 208.34982022 -39.83973404 207.44591516 -36 204 C-32.48391092 199.15022195 -31.48753053 194.27933213 -31.61328125 188.359375 C-32.76886431 181.3091511 -38.76896947 177.1917908 -44.1875 173.1875 C-45.21230469 172.45917969 -46.23710937 171.73085938 -47.29296875 170.98046875 C-52.64503817 167.0648855 -52.64503817 167.0648855 -54 163 C-54.14220279 161.33732126 -54.22020567 159.6684827 -54.25 158 C-54.28867188 156.700625 -54.28867188 156.700625 -54.328125 155.375 C-53.94072585 152.57096806 -53.17141522 151.73713218 -51 150 C-51.03480469 150.71285156 -51.06960937 151.42570313 -51.10546875 152.16015625 C-51.34991065 160.51097495 -51.34991065 160.51097495 -48 168 C-45.32357583 169.90437874 -42.56477747 171.57223747 -39.734375 173.23828125 C-34.84469973 176.38862918 -31.24600685 180.6216697 -29 186 C-27.93377614 193.17841415 -29.59978361 198.71567149 -33 205 C-32.236875 205.763125 -31.47375 206.52625 -30.6875 207.3125 C-29.3571875 208.6428125 -29.3571875 208.6428125 -28 210 C-27.46375 210.495 -26.9275 210.99 -26.375 211.5 C-25 213 -25 213 -23.6953125 215.40234375 C-19.37238334 222.02618682 -10.65941817 224.7429339 -3.4453125 227.140625 C-1 228 -1 228 1.0546875 229.0703125 C4.26024428 230.60228542 7.48496595 230.6484966 11 231 C10.54554036 229.58208592 10.08625056 228.16571954 9.625 226.75 C9.36976563 225.96109375 9.11453125 225.1721875 8.8515625 224.359375 C8.07836737 222.03037312 8.07836737 222.03037312 6.97265625 220.11328125 C4.63250196 215.02884964 4.37208413 209.49279675 5 204 C6.85598215 200.82563052 8.9962037 198.44153836 11.51171875 195.765625 C18.36438474 188.14916108 21.42250679 179.08354571 23.9921875 169.35546875 C26.67552834 160.42139984 31.35747778 154.06417888 38.14453125 147.77734375 C41.75520174 144.31870149 41.20421469 140.58678249 41.375 135.875 C41.7921829 126.56823989 41.7921829 126.56823989 43.5625 122.4375 C46.16026895 116.22544382 45.50112569 111.95396339 43.0625 105.9375 C40.70294196 100.07956945 40.5599142 94.60219508 40.56640625 88.3828125 C39.84834655 84.09426283 38.27304602 82.75599255 35 80 C29.89017583 75.01792144 25.65860695 70.2486554 22.125 64.0625 C20.1716569 60.67939029 18.29067422 58.15421041 15.375 55.5625 C11.68117724 52.11222599 10.41795047 48.51349019 8.89453125 43.76171875 C8.07160509 41.221069 7.11173014 38.86270282 6 36.4375 C5.67515625 35.70917969 5.3503125 34.98085937 5.015625 34.23046875 C4.31952353 32.70172282 3.59941817 31.18374593 2.859375 29.67578125 C0.09908739 23.64008193 -0.30465174 18.67867897 -0.0703125 12.0703125 C-0.00839325 9.36650522 -0.17040104 6.9181856 -0.5625 4.25 C-0.706875 3.1775 -0.85125 2.105 -1 1 C-0.67 0.67 -0.34 0.34 0 0 Z " fill="#32342F" transform="translate(252,173)"/>
  <path d="M0 0 C4.51025952 1.25284987 5.6671889 3.39857832 8.27734375 7.15625 C11.2177323 11.05486574 14.66937979 14.32615942 18.19995117 17.68652344 C22.49525519 21.84160395 25.21467468 25.56244495 26.625 31.375 C27.87293765 35.83571331 29.72965888 39.78979956 31.875 43.875 C35.37205895 50.60604472 37.73715963 57.17048247 38.74609375 64.7109375 C40.10260429 74.69597384 45.15725641 80.63139742 51.9375 87.8125 C60.26974945 96.98653492 63.09744754 104.94802972 62.5859375 117.078125 C62.51632813 118.02171875 62.44671875 118.9653125 62.375 119.9375 C63.57125 119.421875 64.7675 118.90625 66 118.375 C69.8913689 116.9612046 72.41255899 116.26446935 76.375 117.9375 C79.87554289 121.78503548 81.60390799 126.38844859 83.25 131.25 C85.00727484 136.36015524 87.43492857 140.52868361 90.42578125 145.01171875 C92.63925584 148.33414855 94.73139937 151.71880178 96.8125 155.125 C97.49183594 156.23230469 98.17117187 157.33960938 98.87109375 158.48046875 C99.36738281 159.29128906 99.86367187 160.10210937 100.375 160.9375 C99.715 161.5975 99.055 162.2575 98.375 162.9375 C97.72273437 161.8753125 97.07046875 160.813125 96.3984375 159.71875 C95.51628817 158.29125663 94.63342832 156.8642022 93.75 155.4375 C93.06212402 154.32266235 93.06212402 154.32266235 92.36035156 153.18530273 C90.12333081 149.59572903 87.89526117 146.20728098 85.125 143 C81.58046476 138.55926125 80.10266975 133.08848374 78.37792969 127.75024414 C77.05375944 123.45890982 77.05375944 123.45890982 74.375 119.9375 C69.47383196 119.38054909 66.65009871 120.65744735 62.375 122.9375 C61.385 122.9375 60.395 122.9375 59.375 122.9375 C59.40980469 121.803125 59.44460937 120.66875 59.48046875 119.5 C59.86763747 102.04837001 54.56588358 94.71159931 42.875 81.8203125 C41.39812089 79.96652153 40.56522577 78.28571115 39.625 76.125 C36.70300446 71.98550632 34.36227231 71.36007384 29.51953125 70.296875 C24.05542423 69.67240563 18.80565947 70.2167423 13.375 70.9375 C12.19744141 71.08638672 12.19744141 71.08638672 10.99609375 71.23828125 C9.45227345 71.44724279 7.91265661 71.68718381 6.375 71.9375 C9.39448429 69.32340944 11.40448628 68.54249927 15.375 68.3125 C18.89519902 68.11488884 18.89519902 68.11488884 22.296875 67.29296875 C25.41824805 66.75904967 27.67583144 67.81714606 30.625 68.875 C31.70265625 69.25527344 32.7803125 69.63554688 33.890625 70.02734375 C34.71046875 70.32769531 35.5303125 70.62804687 36.375 70.9375 C34.17195935 55.21462635 34.17195935 55.21462635 27.375 41.0625 C25.41101151 37.99376799 24.54732117 35.52471874 23.5 32.0625 C20.73358564 23.38796816 16.16152311 18.46749425 9.27734375 12.74609375 C6.28613085 9.90229175 4.32502464 6.54692061 2.375 2.9375 C-2.52030735 3.14581095 -5.188716 4.11952 -9.1875 7 C-11.87571901 8.87993694 -13.45284442 9.89885283 -16.6875 10.625 C-19.65161161 9.93127175 -20.7795491 9.17641407 -23.171875 7.421875 C-28.02673381 4.32193145 -32.1789367 4.28574815 -37.8125 4.5 C-39.12637695 4.50870117 -39.12637695 4.50870117 -40.46679688 4.51757812 C-44.92667604 4.60210957 -48.57982479 4.85209911 -52.625 6.9375 C-52.625 7.5975 -52.625 8.2575 -52.625 8.9375 C-53.285 8.9375 -53.945 8.9375 -54.625 8.9375 C-54.893125 9.494375 -55.16125 10.05125 -55.4375 10.625 C-55.829375 11.388125 -56.22125 12.15125 -56.625 12.9375 C-57.181875 14.175 -57.181875 14.175 -57.75 15.4375 C-60.4763236 19.07259814 -63.276931 20.65478675 -67.625 21.9375 C-69.99581946 22.14024967 -72.37234096 22.28210308 -74.75 22.375 C-80.3197496 22.52347157 -80.3197496 22.52347157 -85.1875 24.875 C-93.06059392 34.76683595 -94.83883382 46.02600189 -96.3046875 58.22265625 C-96.81510805 61.85940265 -97.19224695 64.33007565 -99.34765625 67.35546875 C-102.0283874 69.21772624 -104.63242687 70.35292793 -107.6875 71.5 C-112.8258928 73.2930932 -112.8258928 73.2930932 -116.625 76.9375 C-118.89409207 83.17369599 -118.94331094 89.13972627 -119.0859375 95.70703125 C-119.26382813 96.77308594 -119.44171875 97.83914062 -119.625 98.9375 C-121.5859375 100.06640625 -121.5859375 100.06640625 -123.625 100.9375 C-124.54099427 103.34154738 -124.54099427 103.34154738 -124.875 106.0625 C-125.09929687 107.42761719 -125.09929687 107.42761719 -125.328125 108.8203125 C-125.42609375 109.51898438 -125.5240625 110.21765625 -125.625 110.9375 C-125.955 110.9375 -126.285 110.9375 -126.625 110.9375 C-126.73324843 109.3348218 -126.81070645 107.73004252 -126.875 106.125 C-126.92140625 105.23167969 -126.9678125 104.33835937 -127.015625 103.41796875 C-126.625 100.9375 -126.625 100.9375 -124.734375 99.11328125 C-122.625 97.9375 -122.625 97.9375 -120.625 97.9375 C-120.65980469 96.79152344 -120.69460937 95.64554687 -120.73046875 94.46484375 C-120.75862703 92.93491061 -120.78592499 91.40496146 -120.8125 89.875 C-120.83763672 89.12283203 -120.86277344 88.37066406 -120.88867188 87.59570312 C-120.95783085 82.27046234 -120.35333751 78.56705797 -117.625 73.9375 C-114.8828125 72.01171875 -114.8828125 72.01171875 -111.75 70.625 C-110.72132812 70.15449219 -109.69265625 69.68398437 -108.6328125 69.19921875 C-106.71996889 68.39681812 -104.78265398 67.64889677 -102.8203125 66.9765625 C-100.23455907 66.0637873 -100.23455907 66.0637873 -99.375 62.625 C-98.64871244 58.95358307 -98.42099357 55.29399162 -98.1875 51.5625 C-97.36315561 39.83248481 -93.71675813 29.26778836 -84.625 21.3125 C-79.90468841 19.07089085 -74.27899761 19.3462261 -69.1484375 19.2109375 C-65.81302453 18.9520917 -63.547679 18.53814476 -60.625 16.9375 C-60.356875 16.050625 -60.08875 15.16375 -59.8125 14.25 C-57.96920287 9.10817116 -53.50273 5.376365 -48.625 2.9375 C-44.86055311 2.64254442 -41.08715053 2.6595032 -37.3125 2.625 C-35.74338867 2.58149414 -35.74338867 2.58149414 -34.14257812 2.53710938 C-26.3285397 2.47244833 -26.3285397 2.47244833 -22.62890625 4.91796875 C-21.96761719 5.58441406 -21.30632812 6.25085938 -20.625 6.9375 C-16.35409683 7.64931719 -14.09215342 7.81122648 -10.35546875 5.5859375 C-9.59878906 5.04195312 -8.84210938 4.49796875 -8.0625 3.9375 C-5.16825579 1.86734591 -3.52101677 0.91060778 0 0 Z " fill="#32342F" transform="translate(151.625,9.0625)"/>
  <path d="M0 0 C1.15617535 0.90358749 2.30215664 1.82037252 3.4375 2.75 C7.33916932 4.78950896 11.79954802 4.53326062 16.12719727 4.55249023 C21.22213921 4.62652506 21.22213921 4.62652506 23.55859375 6.140625 C24.90965587 8.29758383 25.53587697 10.26597638 26.171875 12.73046875 C26.94509657 15.69908729 27.72713423 18.01535631 29.25 20.69921875 C31.07259678 24.82509717 31.0446604 28.15833506 30.921875 32.60546875 C30.91671875 33.36408203 30.9115625 34.12269531 30.90625 34.90429688 C30.86043809 38.14835248 30.7035286 40.82300795 29.671875 43.91796875 C29.58895547 45.90999905 29.56449323 47.90470588 29.57421875 49.8984375 C29.57744141 51.06181641 29.58066406 52.22519531 29.58398438 53.42382812 C29.59236328 54.63876953 29.60074219 55.85371094 29.609375 57.10546875 C29.61388672 58.33201172 29.61839844 59.55855469 29.62304688 60.82226562 C29.63484435 63.85421543 29.65130579 66.88606781 29.671875 69.91796875 C30.13078125 69.36367188 30.5896875 68.809375 31.0625 68.23828125 C31.98289062 67.15160156 31.98289062 67.15160156 32.921875 66.04296875 C33.52515625 65.32367188 34.1284375 64.604375 34.75 63.86328125 C36.64275134 61.94744757 38.20845227 60.9534783 40.671875 59.91796875 C39.43163892 63.63867698 37.71457352 64.54317966 34.671875 66.91796875 C32.54679256 70.1055924 32.1698587 72.18309098 31.671875 75.91796875 C31.011875 75.91796875 30.351875 75.91796875 29.671875 75.91796875 C30.001875 76.90796875 30.331875 77.89796875 30.671875 78.91796875 C30.76310738 80.26717509 30.80252878 81.62037062 30.8046875 82.97265625 C30.80662109 84.14248047 30.80662109 84.14248047 30.80859375 85.3359375 C30.80472656 86.14675781 30.80085938 86.95757812 30.796875 87.79296875 C30.80267578 88.99759766 30.80267578 88.99759766 30.80859375 90.2265625 C30.80194416 94.26286176 30.65131836 97.97890304 29.671875 101.91796875 C28.77328797 106.04822035 28.77328797 106.04822035 29.671875 109.91796875 C32.31925881 112.27023436 35.05345471 114.10950668 38.0703125 115.9609375 C40.930891 118.11281412 41.69994676 119.52792988 42.671875 122.91796875 C41.681875 123.41296875 41.681875 123.41296875 40.671875 123.91796875 C40.218125 123.07234375 39.764375 122.22671875 39.296875 121.35546875 C37.21492344 118.08057414 34.75179564 116.71262555 31.421875 114.79296875 C28.19241833 112.668451 26.87561011 111.79344761 25.98828125 107.98046875 C25.98345003 104.03819428 26.3459 100.37414906 27.20703125 96.52734375 C27.81909249 93.09157142 27.80375433 89.78079112 27.796875 86.29296875 C27.79945313 84.98070312 27.80203125 83.6684375 27.8046875 82.31640625 C27.83054361 78.92907481 27.83054361 78.92907481 26.671875 75.91796875 C26.57533716 73.45115384 26.53186587 71.01350957 26.5390625 68.546875 C26.53810577 67.82813705 26.53714905 67.10939911 26.53616333 66.36888123 C26.53548342 64.85000521 26.53732456 63.33112627 26.54150391 61.81225586 C26.54684704 59.49260898 26.54155662 57.17315642 26.53515625 54.85351562 C26.53581722 53.37630166 26.53709877 51.89908781 26.5390625 50.421875 C26.53703827 49.73009659 26.53501404 49.03831818 26.53292847 48.32557678 C26.54891485 45.02551284 26.73560805 42.08393476 27.671875 38.91796875 C28.46259382 30.15228586 27.71203374 23.44284222 23.765625 15.5390625 C22.61081785 12.77164965 22.45741322 10.88290282 22.671875 7.91796875 C21.57488281 7.88058594 20.47789062 7.84320313 19.34765625 7.8046875 C17.89319643 7.73900222 16.43877084 7.67255576 14.984375 7.60546875 C13.9025293 7.57163086 13.9025293 7.57163086 12.79882812 7.53710938 C8.27897167 7.31008462 5.42666608 6.65795143 1.671875 3.91796875 C-1.61559916 1.72631931 -2.81307325 1.63117489 -6.65234375 1.50390625 C-7.68037109 1.46523437 -8.70839844 1.4265625 -9.76757812 1.38671875 C-11.37536133 1.3403125 -11.37536133 1.3403125 -13.015625 1.29296875 C-14.09908203 1.25429687 -15.18253906 1.215625 -16.29882812 1.17578125 C-18.97508967 1.08146366 -21.65134343 0.9958687 -24.328125 0.91796875 C-24.328125 0.58796875 -24.328125 0.25796875 -24.328125 -0.08203125 C-17.35396623 -1.76023119 -6.74406215 -3.13440472 0 0 Z " fill="#32342F" transform="translate(128.328125,238.08203125)"/>
  <path d="M0 0 C0.66 0 1.32 0 2 0 C2.27714844 1.25296875 2.55429688 2.5059375 2.83984375 3.796875 C3.20570096 5.44792292 3.57158793 7.09896424 3.9375 8.75 C4.21110352 9.9875 4.21110352 9.9875 4.49023438 11.25 C4.66748047 12.04921875 4.84472656 12.8484375 5.02734375 13.671875 C5.18968506 14.4050293 5.35202637 15.13818359 5.51928711 15.89355469 C5.82830251 17.24763537 6.16958238 18.59496781 6.55029297 19.93066406 C7.54619859 24.51334377 7.18477614 29.33130906 7.1875 34 C7.19974609 35.07378906 7.21199219 36.14757812 7.22460938 37.25390625 C7.23637391 43.77146045 6.69770813 49.8944507 5.45532227 56.29492188 C4.49101062 62.02391545 3.8290024 67.90853906 7 73 C10.80981964 74.90490982 14.90141911 74.33435071 18.875 73.125 C21.1501532 72.18405876 21.1501532 72.18405876 22 70 C22.32643637 63.64158722 20.35459802 58.00170689 18.1875 52.125 C15.23689552 43.96130395 13.77879463 35.76941015 12.5625 27.1875 C12.38678467 25.96498535 12.21106934 24.7424707 12.0300293 23.48291016 C10.76311534 13.91200569 10.76311569 13.91200569 12 9 C12.33 9 12.66 9 13 9 C13.15557373 10.02246826 13.31114746 11.04493652 13.47143555 12.09838867 C14.06253384 15.95688574 14.67299571 19.81212661 15.28881836 23.66674805 C15.55079763 25.32316932 15.80778784 26.98038882 16.05932617 28.63842773 C17.48974564 38.04279587 19.2475648 46.51608733 22.93237305 55.32104492 C24.27047351 58.67868874 24.8123809 61.46533264 25.0625 65.0625 C25.20365234 66.62677734 25.20365234 66.62677734 25.34765625 68.22265625 C25 71 25 71 23.18359375 73.30859375 C19.04515671 76.51421672 14.73380309 76.47939675 9.67578125 76.37890625 C7 76 7 76 3.8125 73.875 C0.09732825 68.18109547 1.33473027 59.74563632 2.46484375 53.3828125 C2.72974609 52.17238281 2.72974609 52.17238281 3 50.9375 C5.73568265 37.47714841 4.60076091 23.77223823 0.875 10.6640625 C-0.00706915 6.97039792 -0.15634364 3.7815618 0 0 Z " fill="#31332E" transform="translate(218,145)"/>
  <path d="M0 0 C2.15851129 1.4198661 4.29865812 2.86287215 6.4375 4.3125 C7.4275 4.9725 8.4175 5.6325 9.4375 6.3125 C9.1075 7.6325 8.7775 8.9525 8.4375 10.3125 C7.85484375 10.25449219 7.2721875 10.19648438 6.671875 10.13671875 C0.07502571 9.77368459 -4.56453099 11.20819889 -10.5078125 14.0234375 C-17.7093191 17.06243645 -24.39390891 17.7003356 -32.125 17.75 C-33.4852832 17.79930664 -33.4852832 17.79930664 -34.87304688 17.84960938 C-41.44707373 17.90204904 -44.6176278 16.66501772 -49.5625 12.3125 C-53.5625 7.90224359 -53.5625 7.90224359 -53.5625 5.3125 C-50.5625 6.3125 -50.5625 6.3125 -48.25 9.1875 C-45.16661761 12.97123768 -42.28263938 14.97482753 -37.296875 15.59375 C-26.51002751 15.98130141 -15.10872573 13.93663698 -5.45703125 9.1015625 C-1.38297823 7.40474042 2.37723724 7.95907908 6.4375 9.3125 C5.24541977 5.7362593 4.66892039 5.63254051 1.4375 4 C-2.71427333 1.82180414 -6.51033422 -0.63331764 -10.32421875 -3.35546875 C-19.09479837 -8.57495854 -32.02555939 -8.19098297 -41.82421875 -6.23632812 C-47.87082898 -4.57207064 -53.26708023 -2.00687158 -58.5625 1.3125 C-57.51616653 -1.99133377 -56.568061 -2.68452438 -53.4453125 -4.35546875 C-52.19834463 -4.87570057 -50.9454146 -5.38182574 -49.6875 -5.875 C-48.74970703 -6.26461914 -48.74970703 -6.26461914 -47.79296875 -6.66210938 C-30.66690584 -13.66822602 -15.02784052 -9.60847019 0 0 Z " fill="#343631" transform="translate(179.5625,125.6875)"/>
  <path d="M0 0 C0.66 0.33 1.32 0.66 2 1 C1.44570312 1.38671875 0.89140625 1.7734375 0.3203125 2.171875 C-0.76636719 2.95304688 -0.76636719 2.95304688 -1.875 3.75 C-2.59429687 4.26046875 -3.31359375 4.7709375 -4.0546875 5.296875 C-6.89535093 7.78388154 -7.85257024 9.77078047 -8.30078125 13.5078125 C-8.30464844 14.37148437 -8.30851563 15.23515625 -8.3125 16.125 C-8.32925781 16.99382812 -8.34601563 17.86265625 -8.36328125 18.7578125 C-8.24339844 19.49773437 -8.12351563 20.23765625 -8 21 C-4.59345115 23.27103256 -2.26318122 23.57826581 1.75 24.25 C9.98699787 25.946601 13.89722832 28.77231117 18.5 35.625 C20.99693879 39.25764321 23.7562681 41.65945665 28 43 C33.2180624 43.73675699 37.52569315 43.58972274 42.4375 41.625 C45.5329892 38.45401106 46.67079205 35.50649902 48.04296875 31.33984375 C49.06173605 28.84906165 49.85033028 27.60331661 52 26 C54.0078125 25.55859375 54.0078125 25.55859375 56.125 25.4375 C57.40375 25.293125 58.6825 25.14875 60 25 C60.33 24.34 60.66 23.68 61 23 C61.66 23 62.32 23 63 23 C61.125 26.875 61.125 26.875 60 28 C57.34536879 28.45459858 54.67810862 28.70243238 52 29 C51.76216797 29.88751953 51.76216797 29.88751953 51.51953125 30.79296875 C49.95135459 36.10397588 48.42621624 39.41687257 44 43 C43.278125 43.598125 42.55625 44.19625 41.8125 44.8125 C36.9276142 46.87500734 32.00061833 46.78349479 26.890625 45.44921875 C21.37403455 43.12121758 17.88936364 38.93421321 14.078125 34.4375 C13.39234375 33.633125 12.7065625 32.82875 12 32 C11.07767578 30.88818359 11.07767578 30.88818359 10.13671875 29.75390625 C7.30901474 27.432811 5.17458024 27.30079593 1.5625 26.9375 C-3.08226555 26.45849173 -6.18651841 25.76597229 -10 23 C-12.22881089 19.4541645 -12.3259367 16.17762518 -11.671875 12.05859375 C-10.07375213 7.16201959 -6.30592332 3.94976242 -2.25 1 C-1.5075 0.67 -0.765 0.34 0 0 Z " fill="#333530" transform="translate(196,189)"/>
  <path d="M0 0 C3.52566736 2.38220768 5.99410094 4.69342194 7.57421875 8.71875 C8.51494596 13.75897652 7.62979748 18.95403227 7 24 C7.804375 24.12375 8.60875 24.2475 9.4375 24.375 C10.7059375 24.684375 10.7059375 24.684375 12 25 C12.495 25.99 12.495 25.99 13 27 C9.56598195 26.58791783 6.51624706 26.21610342 3.3125 24.875 C-3.59460508 23.05048168 -10.4935858 24.36140531 -17 27 C-21.58702915 27.63411355 -25.61908121 27.34394017 -29.875 25.5 C-37.47345514 22.33397702 -45.17744197 23.62262118 -52.7109375 26.34375 C-55.23524928 27.06744348 -57.38721634 27.11078941 -60 27 C-55.15273773 22.15273773 -44.14753624 20.75768828 -37.5625 20.5625 C-34.35876435 20.68917159 -31.93666718 21.30142622 -29 22.5625 C-23.32527456 24.99780727 -17.57510767 23.87553661 -11.875 21.9375 C-6.54511592 20.19949432 -1.43048838 20.82355104 4 22 C4.42824674 14.089331 4.66417293 8.55899319 0 2 C0 1.34 0 0.68 0 0 Z " fill="#363833" transform="translate(247,236)"/>
  <path d="M0 0 C0.66 0 1.32 0 2 0 C1.96334229 0.57967529 1.92668457 1.15935059 1.88891602 1.7565918 C1.74282624 4.39968074 1.65221164 7.04192208 1.5625 9.6875 C1.50384766 10.59951172 1.44519531 11.51152344 1.38476562 12.45117188 C1.3164111 15.13652804 1.3390656 17.39298097 2 20 C3.68149079 21.7209293 5.34127312 22.78605715 7.42163086 23.98120117 C9 25 9 25 9.71875 27.17578125 C9.6465625 27.88089844 9.574375 28.58601563 9.5 29.3125 C9.4484375 30.00988281 9.396875 30.70726562 9.34375 31.42578125 C9.07035447 33.47314097 8.78025069 35.51826799 8.484375 37.5625 C7.81215105 42.92837722 7.77764764 48.28584272 7.75 53.6875 C7.729375 54.70650391 7.70875 55.72550781 7.6875 56.77539062 C7.65972786 62.08334117 7.66345767 65.63092156 11 70 C11.6875 73.3125 11.6875 73.3125 12 76 C16.29188221 76.53648528 18.57008271 75.85257711 22.0625 73.5 C24.44353733 71.91113288 25.8562516 71.03008688 28.6875 70.4375 C31.82825835 71.20146825 33.64222456 72.8443196 36 75 C35.0925 74.835 34.185 74.67 33.25 74.5 C28.79655362 73.8148544 26.70392475 73.55832173 22.8125 76 C18.62347423 78.58626809 14.79022386 78.39103868 10 78 C8.92578125 75.11914062 8.92578125 75.11914062 7.8515625 72.23828125 C7.27316125 70.71798805 6.64040294 69.21750665 5.96118164 67.73950195 C4.87222422 64.63582117 4.75660758 62.21331443 4.76953125 58.9296875 C4.77146484 57.78628906 4.77339844 56.64289063 4.77539062 55.46484375 C4.78763672 54.28019531 4.79988281 53.09554687 4.8125 51.875 C4.81314453 50.68261719 4.81378906 49.49023438 4.81445312 48.26171875 C4.85940189 39.42179432 4.85940189 39.42179432 6 36 C6.44901266 32.59546101 6.61716658 29.38880556 6 26 C3.11211359 23.76915523 3.11211359 23.76915523 0 22 C-1.1680992 16.93400457 -0.97308636 12.21763989 -0.5625 7.0625 C-0.51029297 6.37865234 -0.45808594 5.69480469 -0.40429688 4.99023438 C-0.27630102 3.32628831 -0.13912281 1.6630527 0 0 Z " fill="#333530" transform="translate(60,164)"/>
  <path d="M0 0 C0.66 0 1.32 0 2 0 C4.34429025 7.88533994 4.20756999 16.63497461 0.625 24.0625 C-2.80286064 29.59918702 -7.01748731 31.80988838 -13 34 C-13.86496094 34.36996094 -14.72992188 34.73992187 -15.62109375 35.12109375 C-18 36 -18 36 -21 36 C-20.67257813 36.62261719 -20.34515625 37.24523437 -20.0078125 37.88671875 C-18.60175642 42.23023307 -18.78713022 46.2804469 -18.875 50.8125 C-18.88402344 51.69615234 -18.89304687 52.57980469 -18.90234375 53.49023438 C-18.92580363 55.66027359 -18.96167135 57.83017247 -19 60 C-19.66 59.67 -20.32 59.34 -21 59 C-21.02505615 58.43490723 -21.0501123 57.86981445 -21.07592773 57.28759766 C-21.19179956 54.73316258 -21.31456537 52.1791045 -21.4375 49.625 C-21.47681641 48.73554688 -21.51613281 47.84609375 -21.55664062 46.9296875 C-21.59853516 46.07890625 -21.64042969 45.228125 -21.68359375 44.3515625 C-21.72025146 43.56604004 -21.75690918 42.78051758 -21.79467773 41.97119141 C-21.890891 39.92476504 -21.890891 39.92476504 -23 38 C-25.78599535 37.57366277 -28.50992002 37.24870882 -31.3125 37 C-40.64380485 36.15948213 -40.64380485 36.15948213 -44 34 C-40.65529901 32.88509967 -40.23508191 33.16764616 -37 34 C-25.21994765 34.93811566 -14.6501491 34.05411332 -4.875 26.625 C-0.46725661 20.45415925 0.43465688 15.45819428 0.1875 8.0625 C0.17396484 7.28326172 0.16042969 6.50402344 0.14648438 5.70117188 C0.11150224 3.80047596 0.05770959 1.90014166 0 0 Z " fill="#323530" transform="translate(79,102)"/>
  <path d="M0 0 C8.18036138 5.88814103 15.68688636 13.03534352 19.5625 22.5 C19.5625 23.16 19.5625 23.82 19.5625 24.5 C15.8335474 23.2570158 15.59591259 22.24137502 13.75 18.875 C8.47370254 9.82808021 1.87424558 2.32501372 -8.42578125 -1.17578125 C-18.37307223 -2.77893688 -27.24336839 -1.29088899 -35.84375 3.97265625 C-41.77194679 8.26653852 -46.11214601 13.64250427 -50.4375 19.5 C-50.7675 18.84 -51.0975 18.18 -51.4375 17.5 C-39.59216465 1.17564722 -19.91782106 -12.41357158 0 0 Z " fill="#333631" transform="translate(168.4375,104.5)"/>
  <path d="M0 0 C0.66 0.33 1.32 0.66 2 1 C1.44570312 1.45890625 0.89140625 1.9178125 0.3203125 2.390625 C-0.40414062 3.00421875 -1.12859375 3.6178125 -1.875 4.25 C-2.59429687 4.85328125 -3.31359375 5.4565625 -4.0546875 6.078125 C-6.57285928 8.56595736 -7.83798457 10.53911512 -8.23046875 14.078125 C-8.16009005 17.63544862 -7.99559335 21.0313974 -7.5 24.5625 C-5.98501064 35.65756911 -5.60162643 47.40243964 -12 57 C-18.2057914 60.12379062 -24.09737661 61.61630566 -31 61 C-31.99 60.67 -32.98 60.34 -34 60 C-34.6875 57.9375 -34.6875 57.9375 -35 56 C-34.34 56 -33.68 56 -33 56 C-33 56.99 -33 57.98 -33 59 C-22.22986027 58.85851053 -22.22986027 58.85851053 -13 54 C-9.9800255 48.52933355 -9.58628526 44.04499916 -9.75 37.875 C-9.75515625 37.08996094 -9.7603125 36.30492187 -9.765625 35.49609375 C-9.81922037 31.52333664 -10.14296147 27.88913698 -11 24 C-12.22100374 13.16359179 -12.22100374 13.16359179 -9.578125 8.48046875 C-6.70584625 5.1724383 -3.531144 2.57804761 0 0 Z " fill="#31332E" transform="translate(98,29)"/>
  <path d="M0 0 C3 1 3 1 4.1875 3.0625 C6.34076723 10.84738921 4.69007955 16.99489816 1 24 C-4.86614065 31.49562416 -14.31297717 33.99786711 -23 37 C-23 37.33 -23 37.66 -23 38 C-20.03 38 -17.06 38 -14 38 C-16.42494864 40.42494864 -17.54351364 40.36269991 -20.875 40.8125 C-24.67119533 41.48980679 -25.69231748 41.67653889 -28.4375 44.5625 C-28.953125 45.366875 -29.46875 46.17125 -30 47 C-31.485 47.495 -31.485 47.495 -33 48 C-31.10270276 42.30810828 -28.77531753 37.45120001 -23.35546875 34.6171875 C-20.25709488 33.35238276 -17.13241008 32.17756855 -14 31 C-12.13190933 30.17673093 -10.27618951 29.32449245 -8.4375 28.4375 C-7.65246094 28.06496094 -6.86742187 27.69242187 -6.05859375 27.30859375 C-2.17373913 24.83909414 -0.48805566 21.53838929 0.65625 17.1328125 C1.56591919 11.48872865 1.6119128 5.50629413 0 0 Z " fill="#31332E" transform="translate(257,328)"/>
  <path d="M0 0 C0.33 0 0.66 0 1 0 C1.0515625 0.7734375 1.103125 1.546875 1.15625 2.34375 C1.92552108 9.40705723 3.22599841 13.35692469 8.578125 18.07421875 C10.31496175 19.4552841 12.05491192 20.83243748 13.796875 22.20703125 C26.16720326 32.01971056 26.16720326 32.01971056 27.39453125 39.359375 C27.55451911 42.98576659 27.35504953 45.33831678 25.625 48.5625 C24 50 24 50 22 50 C22.3196875 49.42765625 22.639375 48.8553125 22.96875 48.265625 C24.6927315 44.47808988 24.71798109 41.07081732 24 37 C21.09093242 30.3678597 14.49594165 25.77669754 9.02685547 21.29956055 C4.70326729 17.74428168 0.81970518 14.45911554 -1 9 C-1.17812624 6.3071504 -1.08727698 3.70558632 -1 1 C-0.67 0.67 -0.34 0.34 0 0 Z " fill="#32342F" transform="translate(186,326)"/>
  <path d="M0 0 C0.33 0 0.66 0 1 0 C1.58741523 20.82060661 1.58741523 20.82060661 -5.66015625 29.30859375 C-8.96388196 33.47918626 -8.55941474 38.95760416 -8 44 C-6.37870221 48.45226853 -3.51310026 51.86330334 0 55 C-5.03372844 53.56179187 -6.98955889 51.09754485 -10 47 C-11.94087686 41.17736941 -12.22729293 35.52848045 -9.5078125 29.92578125 C-8.24986734 27.88749252 -6.97628826 25.85877213 -5.6875 23.83984375 C-1.91017762 17.48309984 -1.73890452 10.42880112 -1.24609375 3.1875 C-1 1 -1 1 0 0 Z " fill="#31332E" transform="translate(181,304)"/>
  <path d="M0 0 C15.85334835 -0.85951889 29.10568467 1.13040479 43.82421875 7.15625 C46.82166725 8.31863578 49.82023564 8.62591007 53 9 C53.33 8.01 53.66 7.02 54 6 C54.226875 6.61875 54.45375 7.2375 54.6875 7.875 C56.37929835 10.61410209 57.99244161 11.05024472 61 12 C61 12.33 61 12.66 61 13 C54.06702486 13.63027047 48.46319166 11.31839978 42 9 C28.03130844 4.00445761 28.03130844 4.00445761 13.453125 1.6640625 C12.22009644 1.58913574 12.22009644 1.58913574 10.9621582 1.51269531 C7.30900917 1.31345191 3.65550899 1.14984826 0 1 C0 0.67 0 0.34 0 0 Z " fill="#343631" transform="translate(136,84)"/>
  <path d="M0 0 C0.77077881 0.06058594 1.54155762 0.12117188 2.33569336 0.18359375 C5.86935996 0.45930935 9.40341574 0.72969278 12.9375 1 C14.14986328 1.09539062 15.36222656 1.19078125 16.61132812 1.2890625 C23.09678521 1.7811839 29.49609957 2.11225718 36 2 C35.34 2.99 34.68 3.98 34 5 C29.9293086 5.60835774 25.84599751 5.51485124 21.73364258 5.50097656 C19.70443073 5.50000808 17.67905191 5.54151966 15.65039062 5.5859375 C14.36712891 5.58851563 13.08386719 5.59109375 11.76171875 5.59375 C10.58569092 5.60083984 9.40966309 5.60792969 8.19799805 5.61523438 C4.12495821 4.8316585 2.62876052 3.11657494 0 0 Z " fill="#383B36" transform="translate(205,281)"/>
  <path d="M0 0 C8.14058886 1.77300881 16.4447576 5.66734759 22 12 C24.30914549 15.86412563 24.71120387 19.58037598 24 24 C22.125 27.5 22.125 27.5 20 30 C19.34 30 18.68 30 18 30 C18.48146484 28.93265625 18.48146484 28.93265625 18.97265625 27.84375 C20.03586044 24.90073612 20.36306174 22.6176495 20.4375 19.5 C20.47746094 18.5821875 20.51742187 17.664375 20.55859375 16.71875 C19.75752376 12.8198359 18.05808561 11.50537093 15 9 C12.46752913 7.4096777 9.85641425 6.03345006 7.1875 4.6875 C6.49462891 4.32849609 5.80175781 3.96949219 5.08789062 3.59960938 C3.39626671 2.72463149 1.69872328 1.86111381 0 1 C0 0.67 0 0.34 0 0 Z " fill="#32342F" transform="translate(181,350)"/>
  <path d="M0 0 C0.66 0 1.32 0 2 0 C3.97462643 4.76233433 4.34059283 7.99512011 3 13 C1.13482219 15.90863392 -0.85628166 18.42814083 -4 20 C-6.04055005 20.07065617 -8.08334257 20.08421976 -10.125 20.0625 C-11.22070312 20.05347656 -12.31640625 20.04445313 -13.4453125 20.03515625 C-14.70988281 20.01775391 -14.70988281 20.01775391 -16 20 C-16.33 19.34 -16.66 18.68 -17 18 C-15.78763672 18.06960937 -15.78763672 18.06960937 -14.55078125 18.140625 C-8.00850049 18.42580369 -8.00850049 18.42580369 -1.875 16.5 C0.68970522 13.08039305 1.23109978 10.19400121 2 6 C1.319375 6.495 0.63875 6.99 -0.0625 7.5 C-3.59465009 9.30365111 -6.08636991 9.23021353 -10 9 C-10.66 7.35 -11.32 5.7 -12 4 C-11.01 4.66 -10.02 5.32 -9 6 C-4.85223727 6.28662433 -4.85223727 6.28662433 -1 5 C-0.34444881 2.47266765 -0.34444881 2.47266765 0 0 Z " fill="#343631" transform="translate(52,104)"/>
  <path d="M0 0 C0.66 0.33 1.32 0.66 2 1 C1.57847656 1.48210937 1.15695313 1.96421875 0.72265625 2.4609375 C0.17480469 3.09257812 -0.37304688 3.72421875 -0.9375 4.375 C-1.48277344 5.00148437 -2.02804688 5.62796875 -2.58984375 6.2734375 C-5.29701898 9.58803986 -5.1926329 12.09123756 -5.25 16.3125 C-5.27578125 17.44300781 -5.3015625 18.57351562 -5.328125 19.73828125 C-4.96973501 23.30084842 -3.93941612 25.05208749 -2 28 C-2.3125 30.3125 -2.3125 30.3125 -3 32 C-3.66 32 -4.32 32 -5 32 C-5.28875 30.948125 -5.5775 29.89625 -5.875 28.8125 C-6.81998646 25.17379192 -6.81998646 25.17379192 -8.1875 22.6875 C-9.71762328 17.62632298 -9.11955449 12.43715292 -6.91796875 7.64453125 C-4.85648581 4.22533447 -3.37176333 2.24784222 0 0 Z " fill="#30322D" transform="translate(181,233)"/>
  <path d="M0 0 C0.33 0 0.66 0 1 0 C1.39973773 7.92072901 1.72052969 15.78823155 -3.8046875 22.04296875 C-7.14180223 25.09674355 -10.49645692 27.99921265 -15 29 C-17.3125 28.625 -17.3125 28.625 -19 28 C-16 26 -16 26 -13.125 25.1875 C-8.31778667 23.36075894 -5.80377532 20.20566298 -3 16 C-2.56850833 13.44489249 -2.21537601 10.94595718 -1.9375 8.375 C-1.12185864 1.12185864 -1.12185864 1.12185864 0 0 Z " fill="#31332E" transform="translate(265,338)"/>
  <path d="M0 0 C0.66 0 1.32 0 2 0 C0.88786867 2.8231026 -0.26609473 5.53218947 -1.625 8.25 C-3.69928363 13.90713718 -3.9233233 18.59935941 -1.75 24.25 C-0.03288274 27.06590958 -0.03288274 27.06590958 2.1875 29.6875 C4 32 4 32 4 35 C3.34 35 2.68 35 2 35 C1.04646897 33.3313207 0.09529839 31.66124713 -0.84375 29.984375 C-1.95283663 28.02209728 -1.95283663 28.02209728 -3.15625 26.328125 C-6.43584418 21.40873373 -7.15568237 16.81190988 -6 11 C-4.30358033 7.12667186 -2.27455151 3.56075623 0 0 Z " fill="#30322D" transform="translate(68,43)"/>
  <path d="M0 0 C3.24208567 0.35049575 4.61527704 0.56221181 6.8125 3.0625 C7.204375 3.701875 7.59625 4.34125 8 5 C8.33 3.68 8.66 2.36 9 1 C11.31460539 4.05527911 12.0069379 5.61147757 11.9375 9.5 C10.92680471 13.27326242 9.74688687 15.25311313 7 18 C6.34 18 5.68 18 5 18 C5 17.34 5 16.68 5 16 C5.66 16 6.32 16 7 16 C6.91162485 9.30496035 6.91162485 9.30496035 4.0625 3.5 C3.381875 3.005 2.70125 2.51 2 2 C1.34 1.34 0.68 0.68 0 0 Z " fill="#32342F" transform="translate(76,217)"/>
  <path d="M0 0 C0.66 0 1.32 0 2 0 C3.66711778 2.98863008 5.30457701 5.99257021 6.9375 9 C7.64036133 10.25876953 7.64036133 10.25876953 8.35742188 11.54296875 C11.19294423 16.80602463 12.84182019 20.98916727 13 27 C11.5625 30 11.5625 30 10 32 C9.34 31.67 8.68 31.34 8 31 C8 30.01 8 29.02 8 28 C8.66 28 9.32 28 10 28 C10.49480381 21.88677873 9.03166008 18.19549544 6.125 12.875 C5.39675587 11.49828406 4.67015141 10.12069933 3.9453125 8.7421875 C3.60532227 8.10120117 3.26533203 7.46021484 2.91503906 6.79980469 C1.79032995 4.58759669 0.86012172 2.32685561 0 0 Z " fill="#333530" transform="translate(67,150)"/>
  <path d="M0 0 C0.66 0 1.32 0 2 0 C1.96519531 0.70125 1.93039063 1.4025 1.89453125 2.125 C1.71257061 8.50228736 1.99804217 13.3066317 5 19 C7.53044606 20.58377402 7.53044606 20.58377402 10 21 C10 21.66 10 22.32 10 23 C7.00261059 24.99825961 6.36652492 25.27550398 3 25.25 C1.9790625 25.25773437 1.9790625 25.25773437 0.9375 25.265625 C-1 25 -1 25 -4 23 C-4 22.34 -4 21.68 -4 21 C-3.46375 21.309375 -2.9275 21.61875 -2.375 21.9375 C0.3984957 23.17827439 3.00042837 23.5909675 6 24 C6 23.34 6 22.68 6 22 C5.071875 21.690625 5.071875 21.690625 4.125 21.375 C1.06968299 19.39803017 0.90379501 17.48606648 0 14 C-0.1953125 10.3515625 -0.1953125 10.3515625 -0.125 6.625 C-0.10695313 5.37976563 -0.08890625 4.13453125 -0.0703125 2.8515625 C-0.03550781 1.44003906 -0.03550781 1.44003906 0 0 Z " fill="#333530" transform="translate(78,188)"/>
  <path d="M0 0 C1 3 1 3 -0.5546875 6.66015625 C-1.31321748 8.13536512 -2.08764265 9.60247351 -2.875 11.0625 C-3.27904053 11.82167725 -3.68308105 12.58085449 -4.09936523 13.36303711 C-7.62369268 19.75747553 -11.72325425 24.92284747 -17 30 C-17 26.52000207 -16.4964277 26.04304838 -14.375 23.4375 C-8.96083046 16.47824906 -4.87448154 8.8924624 -1 1 C-0.67 0.67 -0.34 0.34 0 0 Z " fill="#2F322D" transform="translate(179,201)"/>
  <path d="M0 0 C2 0 2 0 4.25 2.1875 C5.61125 3.5796875 5.61125 3.5796875 7 5 C7.99 5.7425 8.98 6.485 10 7.25 C13.82799615 10.35404869 16.02161887 14.54426551 18 19 C18 19.66 18 20.32 18 21 C20.31 21.33 22.62 21.66 25 22 C25 22.33 25 22.66 25 23 C21.8125 23.375 21.8125 23.375 18 23 C14.66472615 19.89741968 12.98991636 17.06738445 11.1875 12.9375 C9.27267593 8.78343951 6.73425749 7.20553063 2.70703125 5.203125 C1 4 1 4 0.26171875 1.859375 C0.17535156 1.24578125 0.08898437 0.6321875 0 0 Z " fill="#333531" transform="translate(170,363)"/>
  <path d="M0 0 C1.32 0.66 2.64 1.32 4 2 C3.52264808 8.32491289 3.52264808 8.32491289 1.5 10.9375 C-2.94688066 12.82742428 -7.51736636 12.91342181 -12.0703125 11.23828125 C-15.49424399 9.42603299 -17.79512938 7.74848638 -19 4 C-18.01 4.33 -17.02 4.66 -16 5 C-16 5.66 -16 6.32 -16 7 C-11.68163561 9.08953116 -6.81539741 10.33365113 -2 10 C-0.12573175 8.83936946 -0.12573175 8.83936946 1 7 C0.76522801 3.35458155 0.76522801 3.35458155 0 0 Z " fill="#32342F" transform="translate(287,302)"/>
  <path d="M0 0 C0.99 0.33 1.98 0.66 3 1 C3.62790698 9.1627907 3.62790698 9.1627907 1.125 12.5 C-2.46655901 15.03521812 -4.5806544 15.4169194 -9 15 C-11.50290327 13.85137305 -13.66962723 12.49143857 -16 11 C-16 10.34 -16 9.68 -16 9 C-11.125 10.875 -11.125 10.875 -10 12 C-5.96916989 12.32460261 -5.96916989 12.32460261 -2 12 C0.13586678 8.79619983 0.23132175 7.98060033 0.125 4.3125 C0.09792969 3.10013672 0.09792969 3.10013672 0.0703125 1.86328125 C0.04710937 1.24839844 0.02390625 0.63351563 0 0 Z " fill="#32342F" transform="translate(231,242)"/>
  <path d="M0 0 C3.5595826 2.40512338 5.98299308 4.72264154 7.57421875 8.78515625 C8.47872161 13.49023075 7.64128386 18.29467622 7 23 C5.35 23 3.7 23 2 23 C2.66 22.67 3.32 22.34 4 22 C4.42824674 14.089331 4.66417293 8.55899319 0 2 C0 1.34 0 0.68 0 0 Z " fill="#30322D" transform="translate(247,236)"/>
  <path d="M0 0 C0.66 0.33 1.32 0.66 2 1 C3.2759818 5.47073321 3.22618882 9.25860332 1.875 13.6875 C-0.77853395 18.37540998 -3.45267135 21.96844757 -8 25 C-8.99 25 -9.98 25 -11 25 C-11 24.34 -11 23.68 -11 23 C-10.113125 22.67 -9.22625 22.34 -8.3125 22 C-3.98023236 19.38429124 -1.73983501 16.76759985 0 12 C0.3906486 7.96000122 0.30325998 4.04346638 0 0 Z " fill="#31332E" transform="translate(63,105)"/>
  <path d="M0 0 C0.66 0 1.32 0 2 0 C2.01417969 0.72445312 2.02835938 1.44890625 2.04296875 2.1953125 C2.38202644 9.06810342 3.2989374 12.05785727 8 17 C8 18.32 8 19.64 8 21 C7.34 21 6.68 21 6 21 C5.0220574 19.31389207 4.04758144 17.62564514 3.09375 15.92578125 C2.16110079 14.28365246 1.17916369 12.66967909 0.1875 11.0625 C-1.42268331 6.90992198 -0.82331948 4.34113908 0 0 Z " fill="#31332E" transform="translate(165,247)"/>
  <path d="M0 0 C0.66 0 1.32 0 2 0 C4.52856057 7.58568171 2.33494891 14.92856986 -1 22 C-1.99 22.33 -2.98 22.66 -4 23 C-3.79503906 22.39414063 -3.59007813 21.78828125 -3.37890625 21.1640625 C-1.11505285 14.12337011 0 7.39719578 0 0 Z " fill="#30322D" transform="translate(68,104)"/>
  <path d="M0 0 C1 3 1 3 -0.58203125 6.43359375 C-1.31537001 7.77383355 -2.05933084 9.108303 -2.8125 10.4375 C-3.54844067 11.76938564 -4.28412515 13.10141287 -5.01953125 14.43359375 C-5.36580566 15.05347168 -5.71208008 15.67334961 -6.06884766 16.31201172 C-7.10058897 18.18234717 -8.07041028 20.07688053 -9 22 C-9.83290169 19.63526045 -10.14086737 18.40409292 -9.30322266 16.0012207 C-8.9272998 15.31632568 -8.55137695 14.63143066 -8.1640625 13.92578125 C-7.55691406 12.80139648 -7.55691406 12.80139648 -6.9375 11.65429688 C-6.504375 10.88150391 -6.07125 10.10871094 -5.625 9.3125 C-5.19960937 8.52810547 -4.77421875 7.74371094 -4.3359375 6.93554688 C-1.20650298 1.20650298 -1.20650298 1.20650298 0 0 Z " fill="#2F322D" transform="translate(174,311)"/>
  <path d="M0 0 C0.66 0 1.32 0 2 0 C6.78231699 6.42623846 6.42306682 12.18501571 6 20 C5.01 20.33 4.02 20.66 3 21 C3.03480469 20.04738281 3.06960938 19.09476562 3.10546875 18.11328125 C3.13253906 16.85902344 3.15960938 15.60476563 3.1875 14.3125 C3.22230469 13.07113281 3.25710938 11.82976562 3.29296875 10.55078125 C2.981976 6.78154909 2.10477202 5.06600649 0 2 C0 1.34 0 0.68 0 0 Z " fill="#30332E" transform="translate(262,246)"/>
  <path d="M0 0 C0.66 0 1.32 0 2 0 C3.15316726 6.34241995 3.09507063 12.56688704 3 19 C2.01 19.33 1.02 19.66 0 20 C0 13.4 0 6.8 0 0 Z " fill="#30322E" transform="translate(194,238)"/>
  <path d="M0 0 C0.33 0 0.66 0 1 0 C1.51007183 8.91208829 0.6671644 15.83073644 -3 24 C-3.66 24 -4.32 24 -5 24 C-4.72285156 22.9378125 -4.44570312 21.875625 -4.16015625 20.78125 C-3.79401364 19.35423263 -3.42814278 17.92714552 -3.0625 16.5 C-2.88009766 15.80390625 -2.69769531 15.1078125 -2.50976562 14.390625 C-1.29034434 9.60162506 -0.52577635 4.91462529 0 0 Z " fill="#2E302B" transform="translate(115,52)"/>
  <path d="M0 0 C4.05626703 2.85034981 6.27904757 5.31518506 8 10 C7.6875 12.875 7.6875 12.875 7 15 C5 13 5 13 4.0625 9.625 C3.08264767 6.2819744 2.14403513 4.63131584 0 2 C0 1.34 0 0.68 0 0 Z " fill="#30322D" transform="translate(160,258)"/>
  <path d="M0 0 C1.22589844 0.01353516 1.22589844 0.01353516 2.4765625 0.02734375 C3.41628906 0.04474609 3.41628906 0.04474609 4.375 0.0625 C4.375 0.3925 4.375 0.7225 4.375 1.0625 C3.78332031 1.14886719 3.19164062 1.23523438 2.58203125 1.32421875 C-3.12264334 2.33858993 -5.9493564 3.55687236 -9.625 8.0625 C-9.955 7.4025 -10.285 6.7425 -10.625 6.0625 C-7.11585383 1.50060998 -5.76245572 -0.0823208 0 0 Z " fill="#333530" transform="translate(248.625,372.9375)"/>
  <path d="M0 0 C0.66 0 1.32 0 2 0 C3.18306728 2.36613456 3.13354608 3.86780736 3.125 6.5 C3.12757812 7.2940625 3.13015625 8.088125 3.1328125 8.90625 C3 11 3 11 2 13 C1.34 13 0.68 13 0 13 C0 8.71 0 4.42 0 0 Z " fill="#2F312D" transform="translate(70,166)"/>
  <path d="M0 0 C3.90156658 3.03455179 6.79575992 5.46906205 9 10 C9 10.66 9 11.32 9 12 C8.34 12 7.68 12 7 12 C5.52734375 10.13671875 5.52734375 10.13671875 3.9375 7.6875 C3.41027344 6.88699219 2.88304687 6.08648437 2.33984375 5.26171875 C1 3 1 3 0 0 Z " fill="#30332E" transform="translate(270,244)"/>
  <path d="M0 0 C3.35915158 1.43963639 5.71624938 3.12416589 8 6 C7.75 8.25 7.75 8.25 7 10 C6.7525 9.21625 6.505 8.4325 6.25 7.625 C4.80505715 4.59062001 3.94434181 4.32970275 1 3 C0.67 2.01 0.34 1.02 0 0 Z " fill="#30332E" transform="translate(259,313)"/>
  <path d="M0 0 C0.639375 0.804375 1.27875 1.60875 1.9375 2.4375 C3.40603502 4.2750504 3.40603502 4.2750504 5 6 C5.04063832 7.66617115 5.042721 9.33388095 5 11 C2.65808437 8.8709858 1.16445046 6.95591271 0 4 C0 2.68 0 1.36 0 0 Z " fill="#353733" transform="translate(259,389)"/>
  <path d="M0 0 C0.33 0.66 0.66 1.32 1 2 C0.01 3.485 0.01 3.485 -1 5 C-1.66 5 -2.32 5 -3 5 C-3 5.66 -3 6.32 -3 7 C-4.65 7.66 -6.3 8.32 -8 9 C-7.04270084 7.87411986 -6.08412105 6.7493285 -5.125 5.625 C-4.59132812 4.99851562 -4.05765625 4.37203125 -3.5078125 3.7265625 C-2.38567993 2.44163349 -1.20628025 1.20628025 0 0 Z " fill="#2E312C" transform="translate(168,289)"/>
  <path d="M0 0 C0.99 0 1.98 0 3 0 C2.45276317 3.37462715 1.9451 5.08235 0 8 C-0.66 8 -1.32 8 -2 8 C-1.34 5.36 -0.68 2.72 0 0 Z " fill="#30322D" transform="translate(279,260)"/>
  <path d="M0 0 C0.99 0 1.98 0 3 0 C1.375 5.75 1.375 5.75 -2 8 C-1.34 5.36 -0.68 2.72 0 0 Z " fill="#30322D" transform="translate(195,372)"/>
</svg>
